<svg width="10" height="8" viewBox="0 0 10 8" fill="none" xmlns="http://www.w3.org/2000/svg">
<path id="Vector" d="M2.71202 6.53158C2.32106 6.53158 1.93009 6.21022 1.73461 6.0725C0.757199 5.42979 0.463976 5.20025 0.268494 5.06253V6.99066C0.268494 7.24415 0.487342 7.44973 0.757199 7.44973H4.66684C4.9367 7.44973 5.15555 7.24415 5.15555 6.99066V5.06253C4.96006 5.20025 4.66684 5.42979 3.68943 6.0725C3.49395 6.21022 3.10298 6.53158 2.71202 6.53158ZM4.66684 3.77711H0.757199C0.487342 3.77711 0.268494 3.98269 0.268494 4.23619V4.46573C0.659458 4.74118 0.610587 4.74118 2.02783 5.70524C2.17444 5.79705 2.46767 6.0725 2.71202 6.0725C2.95637 6.0725 3.2496 5.79705 3.39621 5.75115C4.81345 4.78708 4.76458 4.78708 5.15555 4.51164V4.23619C5.15555 3.98269 4.9367 3.77711 4.66684 3.77711ZM8.57648 2.39988H3.68943C3.41957 2.39988 3.20073 2.60546 3.20073 2.85896V3.31804H4.66684C5.17403 3.31804 5.59217 3.68272 5.63982 4.14753L5.64425 4.14438V6.0725H8.57648C8.84634 6.0725 9.06519 5.86692 9.06519 5.61342V2.85896C9.06519 2.60546 8.84634 2.39988 8.57648 2.39988ZM8.08778 4.23619H7.11037V3.31804H8.08778V4.23619ZM2.71202 2.85896C2.71202 2.35268 3.15048 1.9408 3.68943 1.9408H7.11037V0.56357C7.11037 0.310073 6.89152 0.104492 6.62166 0.104492H1.73461C1.46475 0.104492 1.2459 0.310073 1.2459 0.56357V3.31804H2.71202V2.85896Z" fill="#CE7C02"/>
</svg>
