<svg width="10" height="8" viewBox="0 0 10 8" fill="none" xmlns="http://www.w3.org/2000/svg">
<path id="Vector" d="M8.81432 5.07539L6.89001 4.41562C6.80781 4.38759 6.71645 4.38169 6.62968 4.39879C6.54292 4.4159 6.46545 4.45509 6.40893 4.51046L5.55674 5.34341C4.2193 4.83894 3.14297 3.97788 2.51238 2.90792L3.55357 2.22617C3.62292 2.18104 3.67201 2.11906 3.6934 2.04962C3.7148 1.98018 3.70732 1.90705 3.67212 1.8413L2.84741 0.301856C2.80877 0.230987 2.74044 0.173125 2.65418 0.138248C2.56793 0.10337 2.46917 0.0936624 2.37493 0.110799L0.588067 0.440681C0.497206 0.457466 0.416141 0.498394 0.3581 0.556783C0.30006 0.615173 0.268473 0.687577 0.268494 0.762178C0.268494 4.28779 3.8405 7.1399 8.24064 7.1399C8.33392 7.13994 8.42446 7.11469 8.49749 7.06825C8.57051 7.02182 8.62169 6.95695 8.64268 6.88424L9.05503 5.45475C9.07632 5.37899 9.06392 5.29966 9.01999 5.23042C8.97606 5.16118 8.90333 5.10636 8.81432 5.07539Z" fill="#CE7C02"/>
</svg>
