<svg width="31" height="25" viewBox="0 0 31 25" fill="none" xmlns="http://www.w3.org/2000/svg">
<path id="Vector" d="M17.2276 8.51079V7.23617C15.6191 5.58959 14.541 3.63909 14.1417 1.55705C14.022 0.944688 13.058 0.704278 12.556 1.18056C11.3525 2.31003 10.4057 3.63456 9.76682 5.10423C11.7176 6.84153 14.33 8.03451 17.2276 8.51079ZM23.616 3.8296C21.0948 3.8296 19.0528 5.45804 19.0528 7.46297V10.1574C13.0979 9.87614 8.04424 6.95947 5.76267 2.82261C5.44895 2.2556 4.43936 2.22385 4.10853 2.78178C3.16168 4.37393 2.62551 6.15205 2.62551 8.02997C2.62551 11.2415 4.57055 14.2398 7.47955 16.4625C8.23247 17.0385 8.96827 17.5148 9.69838 17.9503L1.49043 19.5832C0.880108 19.7057 0.60632 20.2682 0.948555 20.69C1.94104 21.9102 4.39373 23.9787 9.68697 24.151C10.1433 24.1646 10.5996 24.0331 10.9475 23.7927L14.6665 21.248H19.0528C24.0951 21.248 28.1791 18.0047 28.1791 13.9949V6.73267L30.0043 3.8296H23.616ZM23.616 8.18873C23.114 8.18873 22.7033 7.86214 22.7033 7.46297C22.7033 7.0638 23.114 6.7372 23.616 6.7372C24.1179 6.7372 24.5286 7.0638 24.5286 7.46297C24.5286 7.86214 24.1179 8.18873 23.616 8.18873Z" fill="#ACB5AA"/>
</svg>
