<svg width="35" height="36" viewBox="0 0 35 36" fill="none" xmlns="http://www.w3.org/2000/svg">
<g id="iconoir:donate" clip-path="url(#clip0_243_880)">
<g id="Group">
<g id="Group 47">
<path id="Vector" d="M23.3358 9.70964C23.3357 10.583 22.9903 11.4209 22.3749 12.0407C20.9583 13.4689 19.5838 14.9581 18.1135 16.3341C17.9493 16.4836 17.734 16.5644 17.512 16.5599C17.29 16.5553 17.0782 16.4656 16.9204 16.3094L12.685 12.0421C12.0694 11.4219 11.7239 10.5835 11.7239 9.70964C11.7239 8.83576 12.0694 7.99733 12.685 7.37715C12.9922 7.06767 13.3576 6.82205 13.7602 6.65444C14.1628 6.48682 14.5945 6.40053 15.0306 6.40053C15.4666 6.40053 15.8984 6.48682 16.301 6.65444C16.7035 6.82205 17.0689 7.06767 17.3761 7.37715L17.53 7.53246L17.6838 7.37715C18.145 6.91104 18.7344 6.59268 19.377 6.46262C20.0196 6.33256 20.6864 6.39667 21.2925 6.64679C21.8986 6.89691 22.4166 7.32173 22.7804 7.86717C23.1443 8.4126 23.3376 9.05397 23.3358 9.70964Z" stroke="#B59090" stroke-width="2.17718" stroke-linejoin="round"/>
<path id="Vector_2" d="M26.2391 29.624L31.7895 24.0736C31.9529 23.9104 32.0448 23.6891 32.045 23.4582V15.8351C32.045 15.2577 31.8156 14.7039 31.4073 14.2956C30.999 13.8873 30.4452 13.658 29.8678 13.658C29.2903 13.658 28.7366 13.8873 28.3283 14.2956C27.92 14.7039 27.6906 15.2577 27.6906 15.8351V22.3667" stroke="#B59090" stroke-width="2.17718" stroke-linecap="round" stroke-linejoin="round"/>
<path id="Vector_3" d="M24.7435 23.774L25.9888 22.5286C26.0543 22.4633 26.1061 22.3857 26.1415 22.3002C26.1769 22.2148 26.195 22.1232 26.1949 22.0308C26.1947 21.9002 26.1583 21.7723 26.0896 21.6614C26.0209 21.5504 25.9227 21.4607 25.8059 21.4023L25.163 21.0815C24.6182 20.8091 24.0016 20.715 23.4004 20.8124C22.7992 20.9098 22.2439 21.1939 21.813 21.6243L20.5139 22.9234C19.9695 23.4677 19.6636 24.2059 19.6634 24.9758V29.5798M7.32602 29.5798L1.77566 24.0294C1.61229 23.8662 1.52041 23.6449 1.5202 23.414V15.791C1.5202 15.2135 1.74958 14.6598 2.15788 14.2515C2.56619 13.8432 3.11996 13.6138 3.69739 13.6138C4.27481 13.6138 4.82858 13.8432 5.23689 14.2515C5.64519 14.6598 5.87457 15.2135 5.87457 15.791V22.3225" stroke="#B59090" stroke-width="2.17718" stroke-linecap="round" stroke-linejoin="round"/>
</g>
<path id="Vector_4" d="M8.82151 23.8178L7.57616 22.5724C7.5108 22.507 7.45896 22.4294 7.42359 22.344C7.38823 22.2586 7.37004 22.167 7.37006 22.0746C7.37006 21.809 7.52101 21.5666 7.75905 21.4461L8.40204 21.1253C8.94679 20.8529 9.5634 20.7588 10.1646 20.8562C10.7658 20.9537 11.3211 21.2377 11.752 21.6682L13.0511 22.9672C13.5955 23.5115 13.9014 24.2497 13.9016 25.0196V29.6236" stroke="#B59090" stroke-width="2.17718" stroke-linecap="round" stroke-linejoin="round"/>
</g>
</g>
<defs>
<clipPath id="clip0_243_880">
<rect width="34.8349" height="34.8349" fill="white" transform="translate(0.112732 0.594971)"/>
</clipPath>
</defs>
</svg>
