<svg width="37" height="38" viewBox="0 0 37 38" fill="none" xmlns="http://www.w3.org/2000/svg">
<g id="praying-hands">
<path id="Vector" d="M16.2365 16.3744C15.4297 16.3744 14.7696 17.0345 14.7696 17.8413V21.5085C14.7696 21.9137 14.4414 22.2419 14.0362 22.2419C13.631 22.2419 13.3027 21.9137 13.3027 21.5085V17.9994C13.3027 17.2023 13.5191 16.4193 13.9303 15.7354L17.4943 9.79503C17.911 9.10009 17.6864 8.19934 16.9915 7.7822C16.3291 7.38477 15.4916 7.58509 15.0525 8.20438C15.0433 8.21493 15.024 8.21401 15.0162 8.22639L9.64106 16.2896C9.15699 17.0157 8.90212 17.8596 8.90212 18.7297V22.4074L4.77104 23.7844C4.47894 23.8816 4.22485 24.0683 4.04482 24.318C3.86479 24.5677 3.76796 24.8678 3.76807 25.1757V29.5763C3.76807 30.0723 4.15862 31.0431 5.23494 31.0431C5.35825 31.0431 5.48293 31.0276 5.60441 30.9959L13.8184 28.8589C16.1063 28.2048 17.7034 26.0874 17.7034 23.7088V17.8413C17.7034 17.0345 17.0433 16.3744 16.2365 16.3744ZM32.1026 23.7881L27.9715 22.4111V18.7333C27.9715 17.8633 27.7166 17.0194 27.2325 16.2933L21.8574 8.23051C21.8491 8.21814 21.8303 8.21951 21.8212 8.20851C21.382 7.58921 20.5445 7.38889 19.8821 7.78633C19.1872 8.20301 18.9626 9.10422 19.3793 9.79915L22.9433 15.7395C23.3545 16.4235 23.5709 17.2064 23.5709 18.0036V21.5126C23.5709 21.9178 23.2426 22.246 22.8374 22.246C22.4322 22.246 22.104 21.9178 22.104 21.5126V17.8454C22.104 17.0386 21.4439 16.3785 20.6371 16.3785C19.8303 16.3785 19.1702 17.0386 19.1702 17.8454V23.7129C19.1702 26.0915 20.7673 28.2089 23.0552 28.8626L31.2692 30.9996C31.3911 31.0312 31.5158 31.0468 31.6387 31.0468C32.715 31.0468 33.1055 30.0759 33.1055 29.5799V25.1793C33.1055 24.5481 32.7017 23.9879 32.1026 23.7881Z" fill="#816D0E" fill-opacity="0.45"/>
</g>
</svg>
